<?xml version="1.0" encoding="UTF-8" standalone="no"?>
<svg
   xmlns:dc="http://purl.org/dc/elements/1.1/"
   xmlns:cc="http://creativecommons.org/ns#"
   xmlns:rdf="http://www.w3.org/1999/02/22-rdf-syntax-ns#"
   xmlns:svg="http://www.w3.org/2000/svg"
   xmlns="http://www.w3.org/2000/svg"
   viewBox="0 0 567.99628 750"
   height="750"
   width="567.99628"
   xml:space="preserve"
   version="1.1"
   id="svg2"><metadata
     id="metadata8"><rdf:RDF><cc:Work
         rdf:about=""><dc:format>image/svg+xml</dc:format><dc:type
           rdf:resource="http://purl.org/dc/dcmitype/StillImage" /></cc:Work></rdf:RDF></metadata><defs
     id="defs6"><clipPath
       id="clipPath18"
       clipPathUnits="userSpaceOnUse"><path
         id="path20"
         d="m 0,600 454.397,0 0,-600 L 0,0 0,600 Z" /></clipPath><clipPath
       id="clipPath30"
       clipPathUnits="userSpaceOnUse"><path
         id="path32"
         d="m 59.513,562 0,-491.718 372.84,0 0,360.333 -80.382,0 c -13.51,0 -24.465,10.952 -24.465,24.463 l 0,0 c 0,1.248 0.096,2.474 0.276,3.672 l 0,0 c -23.506,3.246 -41.611,23.405 -41.611,47.805 l 0,0 c 0,14.734 0.339,44.773 0.339,44.773 l 0,0 c 0,0 36.007,3.499 47.934,3.499 l 0,0 c 6.184,0 12.092,-1.176 17.527,-3.295 l 0,0 0,10.468 -292.458,0 z" /></clipPath></defs><g
     transform="matrix(1.25,0,0,-1.25,0,750)"
     id="g10"><path
       id="path12"
       style="fill:#656565;fill-opacity:1;fill-rule:nonzero;stroke:none"
       d="m 0,0 454.397,0 0,600 L 0,600 0,0 Z" /><g
       id="g14"><g
         clip-path="url(#clipPath18)"
         id="g16"><g
           transform="translate(364.4863,452.9722)"
           id="g22"><path
             id="path24"
             style="fill:#ffffff;fill-opacity:1;fill-rule:nonzero;stroke:none"
             d="m 0,0 c -10.124,0 -18.333,5.708 -18.333,15.834 l 0,10.285 c -22.043,0.231 -39.843,19.842 -39.843,41.941 0,6.386 -0.044,34.135 -0.044,34.135 l -209.696,-0.052 c -13.055,0 -23.638,-10.745 -23.638,-24 l 0,-430 c 0,-13.255 10.583,-24 23.638,-24 l 278.725,0 c 13.054,0 23.637,10.745 23.637,24 L 34.446,0 0,0 Z" /></g></g></g><g
       id="g26"><g
         clip-path="url(#clipPath30)"
         id="g28"><g
           transform="translate(107.5107,520.2812)"
           id="g34"><path
             id="path36"
             style="fill:#846343;fill-opacity:1;fill-rule:nonzero;stroke:none"
             d="m 0,0 156,1 23,-91 76,-16 0,-303 -256,0 1,404 0,5 z" /></g><g
           transform="translate(211.9756,507.7812)"
           id="g38"><path
             id="path40"
             style="fill:#b48558;fill-opacity:1;fill-rule:nonzero;stroke:none"
             d="M 0,0 -95,0 -120,23 25,23 0,0 Z" /></g><path
           id="path42"
           style="fill:#846343;fill-opacity:1;fill-rule:nonzero;stroke:none"
           d="m 211.976,412.781 -95,0 0,95 95,0 0,-95 z" /><g
           transform="translate(236.9756,385.7812)"
           id="g44"><path
             id="path46"
             style="fill:#4f3c33;fill-opacity:1;fill-rule:nonzero;stroke:none"
             d="m 0,0 -145,0 25,27 95,0 L 0,0 Z" /></g><g
           transform="translate(236.9756,530.7812)"
           id="g48"><path
             id="path50"
             style="fill:#6a4c35;fill-opacity:1;fill-rule:nonzero;stroke:none"
             d="m 0,0 0,-145 -25,27 0,95 25,23 z" /></g><g
           transform="translate(91.9756,530.7812)"
           id="g52"><path
             id="path54"
             style="fill:#846343;fill-opacity:1;fill-rule:nonzero;stroke:none"
             d="m 0,0 0,-145 25,27 0,95 L 0,0 Z" /></g><g
           transform="translate(356.9756,507.7812)"
           id="g56"><path
             id="path58"
             style="fill:#b48558;fill-opacity:1;fill-rule:nonzero;stroke:none"
             d="M 0,0 -95,0 -120,23 25,23 0,0 Z" /></g><path
           id="path60"
           style="fill:#846343;fill-opacity:1;fill-rule:nonzero;stroke:none"
           d="m 356.976,412.781 -95,0 0,95 95,0 0,-95 z" /><g
           transform="translate(381.9756,385.7812)"
           id="g62"><path
             id="path64"
             style="fill:#4f3c33;fill-opacity:1;fill-rule:nonzero;stroke:none"
             d="m 0,0 -145,0 25,27 95,0 L 0,0 Z" /></g><g
           transform="translate(381.9756,530.7812)"
           id="g66"><path
             id="path68"
             style="fill:#6a4c35;fill-opacity:1;fill-rule:nonzero;stroke:none"
             d="m 0,0 0,-145 -25,27 0,95 25,23 z" /></g><g
           transform="translate(236.9756,530.7812)"
           id="g70"><path
             id="path72"
             style="fill:#846343;fill-opacity:1;fill-rule:nonzero;stroke:none"
             d="m 0,0 0,-145 25,27 0,95 L 0,0 Z" /></g><g
           transform="translate(211.9756,362.7812)"
           id="g74"><path
             id="path76"
             style="fill:#b48558;fill-opacity:1;fill-rule:nonzero;stroke:none"
             d="M 0,0 -95,0 -120,23 25,23 0,0 Z" /></g><path
           id="path78"
           style="fill:#846343;fill-opacity:1;fill-rule:nonzero;stroke:none"
           d="m 211.976,267.781 -95,0 0,95 95,0 0,-95 z" /><g
           transform="translate(236.9756,240.7812)"
           id="g80"><path
             id="path82"
             style="fill:#4f3c33;fill-opacity:1;fill-rule:nonzero;stroke:none"
             d="m 0,0 -145,0 25,27 95,0 L 0,0 Z" /></g><g
           transform="translate(236.9756,385.7812)"
           id="g84"><path
             id="path86"
             style="fill:#6a4c35;fill-opacity:1;fill-rule:nonzero;stroke:none"
             d="m 0,0 0,-145 -25,27 0,95 25,23 z" /></g><g
           transform="translate(91.9756,385.7812)"
           id="g88"><path
             id="path90"
             style="fill:#846343;fill-opacity:1;fill-rule:nonzero;stroke:none"
             d="m 0,0 0,-145 25,27 0,95 L 0,0 Z" /></g><g
           transform="translate(356.9756,362.7812)"
           id="g92"><path
             id="path94"
             style="fill:#b48558;fill-opacity:1;fill-rule:nonzero;stroke:none"
             d="M 0,0 -95,0 -120,23 25,23 0,0 Z" /></g><path
           id="path96"
           style="fill:#846343;fill-opacity:1;fill-rule:nonzero;stroke:none"
           d="m 356.976,267.781 -95,0 0,95 95,0 0,-95 z" /><g
           transform="translate(381.9756,240.7812)"
           id="g98"><path
             id="path100"
             style="fill:#4f3c33;fill-opacity:1;fill-rule:nonzero;stroke:none"
             d="m 0,0 -145,0 25,27 95,0 L 0,0 Z" /></g><g
           transform="translate(381.9756,385.7812)"
           id="g102"><path
             id="path104"
             style="fill:#6a4c35;fill-opacity:1;fill-rule:nonzero;stroke:none"
             d="m 0,0 0,-145 -25,27 0,95 25,23 z" /></g><g
           transform="translate(236.9756,385.7812)"
           id="g106"><path
             id="path108"
             style="fill:#846343;fill-opacity:1;fill-rule:nonzero;stroke:none"
             d="m 0,0 0,-145 25,27 0,95 L 0,0 Z" /></g><g
           transform="translate(211.9756,217.7812)"
           id="g110"><path
             id="path112"
             style="fill:#b48558;fill-opacity:1;fill-rule:nonzero;stroke:none"
             d="M 0,0 -95,0 -120,23 25,23 0,0 Z" /></g><path
           id="path114"
           style="fill:#846343;fill-opacity:1;fill-rule:nonzero;stroke:none"
           d="m 211.976,122.781 -95,0 0,95 95,0 0,-95 z" /><g
           transform="translate(236.9756,95.7813)"
           id="g116"><path
             id="path118"
             style="fill:#4f3c33;fill-opacity:1;fill-rule:nonzero;stroke:none"
             d="m 0,0 -145,0 25,27 95,0 L 0,0 Z" /></g><g
           transform="translate(236.9756,240.7812)"
           id="g120"><path
             id="path122"
             style="fill:#6a4c35;fill-opacity:1;fill-rule:nonzero;stroke:none"
             d="m 0,0 0,-145 -25,27 0,95 25,23 z" /></g><g
           transform="translate(91.9756,240.7812)"
           id="g124"><path
             id="path126"
             style="fill:#846343;fill-opacity:1;fill-rule:nonzero;stroke:none"
             d="m 0,0 0,-145 25,27 0,95 L 0,0 Z" /></g><g
           transform="translate(356.9756,217.7812)"
           id="g128"><path
             id="path130"
             style="fill:#b48558;fill-opacity:1;fill-rule:nonzero;stroke:none"
             d="M 0,0 -95,0 -120,23 25,23 0,0 Z" /></g><path
           id="path132"
           style="fill:#846343;fill-opacity:1;fill-rule:nonzero;stroke:none"
           d="m 357.476,122.614 -95,0 0,95 95,0 0,-95 z" /><g
           transform="translate(381.9756,95.7813)"
           id="g134"><path
             id="path136"
             style="fill:#4f3c33;fill-opacity:1;fill-rule:nonzero;stroke:none"
             d="m 0,0 -145,0 25,27 95,0 L 0,0 Z" /></g><g
           transform="translate(381.9756,240.7812)"
           id="g138"><path
             id="path140"
             style="fill:#6a4c35;fill-opacity:1;fill-rule:nonzero;stroke:none"
             d="m 0,0 0,-145 -25,27 0,95 25,23 z" /></g><g
           transform="translate(236.9756,240.7812)"
           id="g142"><path
             id="path144"
             style="fill:#846343;fill-opacity:1;fill-rule:nonzero;stroke:none"
             d="m 0,0 0,-145 25,27 0,95 L 0,0 Z" /></g><g
           transform="translate(273.2656,139.9316)"
           id="g146"><path
             id="path148"
             style="fill:#6a4c35;fill-opacity:1;fill-rule:nonzero;stroke:none"
             d="m 0,0 9.179,5.555 c 1.771,-3.14 3.382,-5.796 7.246,-5.796 3.703,0 6.039,1.448 6.039,7.085 l 0,38.325 11.271,0 0,-38.485 c 0,-11.674 -6.843,-16.989 -16.828,-16.989 -9.016,0 -14.251,4.67 -16.907,10.306" /></g><g
           transform="translate(313.123,141.1387)"
           id="g150"><path
             id="path152"
             style="fill:#6a4c35;fill-opacity:1;fill-rule:nonzero;stroke:none"
             d="m 0,0 9.179,5.314 c 2.416,-3.945 5.555,-6.843 11.111,-6.843 4.67,0 7.648,2.335 7.648,5.555 0,3.865 -3.059,5.234 -8.212,7.488 l -2.817,1.209 C 8.776,16.184 3.381,20.532 3.381,29.711 c 0,8.453 6.441,14.894 16.507,14.894 7.166,0 12.318,-2.496 16.021,-9.017 l -8.776,-5.636 c -1.933,3.462 -4.026,4.83 -7.245,4.83 -3.302,0 -5.396,-2.093 -5.396,-4.83 0,-3.382 2.094,-4.751 6.925,-6.845 L 24.234,21.9 C 33.815,17.794 39.21,13.606 39.21,4.187 c 0,-10.145 -7.971,-15.7 -18.679,-15.7 C 10.064,-11.513 3.301,-6.521 0,0" /></g><g
           transform="translate(273.2656,139.9316)"
           id="g154"><path
             id="path156"
             style="fill:#493b31;fill-opacity:1;fill-rule:nonzero;stroke:none"
             d="m 0,0 9.179,5.555 c 1.771,-3.14 3.382,-5.796 7.246,-5.796 3.703,0 6.039,1.448 6.039,7.085 l 0,38.325 11.271,0 0,-3.194 -8.615,0 0,-35.75 c 0,-4.25 -2.25,-8.625 -8.75,-8.625 -6.5,0 -7.875,4.5 -7.875,4.5 0.125,0 -7.25,-4.125 -7.25,-4.125 L 0,0 Z" /></g><g
           transform="translate(346.8447,175.3652)"
           id="g158"><path
             id="path160"
             style="fill:#493b31;fill-opacity:1;fill-rule:nonzero;stroke:none"
             d="m 0,0 c -2.875,5.25 -7.834,8.041 -14.459,8.041 -6.625,0 -12.041,-1.876 -15.874,-13.458 -0.167,9.166 6.184,15.833 16.249,15.833 7.166,0 12.381,-2.479 16.084,-9 C 2,1.416 0.125,0 0,0" /></g><g
           transform="translate(313.123,141.1387)"
           id="g162"><path
             id="path164"
             style="fill:#493b31;fill-opacity:1;fill-rule:nonzero;stroke:none"
             d="m 0,0 9.103,5.268 c 2.416,-3.947 5.979,-6.875 11.535,-6.875 4.67,0 7.271,2.654 7.312,5.875 0.035,2.789 -1.375,3.312 -2.687,4.562 1.875,-1.125 4.75,-2.75 4.75,-5.562 0,-2.096 -1.375,-6.438 -9.25,-6.438 C 13.138,-3.17 9.138,1.705 8.388,2.705 8.388,2.58 0.825,-1.42 0.825,-1.42 L 0,0 Z" /></g><g
           transform="translate(282.1768,507.9478)"
           id="g166"><path
             id="path168"
             style="fill:none;stroke:#b48558;stroke-width:8;stroke-linecap:butt;stroke-linejoin:miter;stroke-miterlimit:10;stroke-dasharray:none;stroke-opacity:1"
             d="m 0,0 c 0,-26.661 19.341,-52 46,-52 0,-14 5.334,-26 28.334,-26 l 24.667,0" /></g></g></g></g></svg>